<?xml version="1.0" encoding="UTF-8" standalone="no"?>
<!-- Created with Inkscape (http://www.inkscape.org/) -->

<svg
   xmlns:dc="http://purl.org/dc/elements/1.1/"
   xmlns:cc="http://creativecommons.org/ns#"
   xmlns:rdf="http://www.w3.org/1999/02/22-rdf-syntax-ns#"
   xmlns:svg="http://www.w3.org/2000/svg"
   xmlns="http://www.w3.org/2000/svg"
   xmlns:sodipodi="http://sodipodi.sourceforge.net/DTD/sodipodi-0.dtd"
   xmlns:inkscape="http://www.inkscape.org/namespaces/inkscape"
   version="1.1"
   id="svg2"
   width="599.46667"
   height="520.53333"
   viewBox="0 0 599.46667 520.53333"
   sodipodi:docname="catalogIcon-mayan-edms.svg"
   inkscape:version="0.92.4 5da689c313, 2019-01-14">
  <metadata
     id="metadata8">
    <rdf:RDF>
      <cc:Work
         rdf:about="">
        <dc:format>image/svg+xml</dc:format>
        <dc:type
           rdf:resource="http://purl.org/dc/dcmitype/StillImage" />
        <dc:title></dc:title>
      </cc:Work>
    </rdf:RDF>
  </metadata>
  <defs
     id="defs6" />
  <sodipodi:namedview
     pagecolor="#ffffff"
     bordercolor="#666666"
     borderopacity="1"
     objecttolerance="10"
     gridtolerance="10"
     guidetolerance="10"
     inkscape:pageopacity="0"
     inkscape:pageshadow="2"
     inkscape:window-width="1916"
     inkscape:window-height="1151"
     id="namedview4"
     showgrid="false"
     inkscape:zoom="0.90676231"
     inkscape:cx="270.86882"
     inkscape:cy="291.89407"
     inkscape:window-x="0"
     inkscape:window-y="22"
     inkscape:window-maximized="0"
     inkscape:current-layer="svg2" />
  <path
     style="fill:#000000;stroke-width:1.4592241"
     d="m 14.102017,507.11149 c -3.077203,-3.70778 -0.897451,-6.39418 9.247504,-11.39687 5.219868,-2.57403 9.889285,-5.6981 10.376465,-6.94236 2.304256,-5.8851 4.737435,-39.62786 5.213903,-72.30507 0.03516,-2.40772 0.699593,-6.86736 1.476616,-9.91032 0.982323,-3.84684 0.889188,-7.18155 -0.305602,-10.94418 -3.908687,-12.30906 -3.022988,-11.5964 -15.174421,-12.21003 -11.635456,-0.58755 -14.281103,-2.09127 -13.539552,-7.69551 0.561491,-4.24358 6.879881,-5.22182 27.106163,-4.19671 21.63022,1.09627 24.910314,2.89193 28.625166,15.67054 1.248936,4.29617 3.134139,8.14252 4.189336,8.54744 1.055183,0.40492 3.075671,5.53044 4.489973,11.39002 1.41429,5.85958 4.329012,13.61861 6.477204,17.24224 2.148165,3.62365 7.525629,14.48567 11.949883,24.13786 4.481105,9.77613 9.005505,17.70642 10.214575,17.90391 3.42642,0.55969 9.35761,-10.40354 16.75247,-30.96534 3.75231,-10.43346 9.39371,-23.78105 12.53646,-29.66133 3.14273,-5.88029 5.7181,-12.4468 5.72304,-14.59224 0.004,-2.14546 0.98993,-5.78168 2.18884,-8.0805 1.19892,-2.29881 2.17984,-5.30693 2.17984,-6.68474 0,-3.27734 6.13223,-6.4829 11.6675,-6.09907 4.99001,0.34603 8.62061,0.36843 21.61525,0.13339 17.12288,-0.30978 17.24982,6.6684 0.21542,11.84244 -5.61529,1.70558 -10.7905,4.18642 -11.50043,5.51298 -0.81954,1.53132 -0.51832,4.53953 0.82504,8.23945 1.44582,3.98205 2.26607,13.68337 2.59017,30.63433 0.67924,35.52526 3.73071,60.24399 7.8907,63.9193 1.34604,1.18919 5.66039,3.0556 9.58743,4.14758 8.14727,2.26546 11.24296,5.67717 8.74414,9.6368 -1.44266,2.28604 -4.72957,2.57189 -31.36584,2.72768 -16.36489,0.0958 -30.90347,-0.41989 -32.30797,-1.14576 -1.40451,-0.72589 -2.55365,-2.49473 -2.55365,-3.93077 0,-2.08584 1.8339,-2.88264 9.1176,-3.96153 8.06754,-1.195 9.36996,-1.85471 11.30899,-5.72822 2.58221,-5.15841 2.57795,-24.75163 -0.008,-42.55042 -0.91466,-6.29248 -1.89287,-19.13847 -2.17378,-28.54667 -0.5034,-16.843 -1.41453,-23.0229 -3.39485,-23.0229 -1.0834,0 -4.63463,10.38422 -4.63463,13.55218 0,1.05838 -1.88207,4.51614 -4.18242,7.68391 -2.30031,3.16775 -5.01714,8.34108 -6.03739,11.49627 -2.43073,7.51726 -10.14914,23.96793 -11.6931,24.92214 -0.66558,0.41137 -1.65982,2.87451 -2.20944,5.47368 -0.5496,2.59915 -2.1571,6.69569 -3.57219,9.10341 -1.4151,2.40772 -2.98998,7.61827 -3.49975,11.579 -0.50975,3.96073 -1.90772,8.69835 -3.10657,10.52804 -1.19885,1.82968 -2.17975,4.62436 -2.17975,6.21037 0,8.84008 -10.243975,0.75995 -13.157097,-10.37791 -0.901559,-3.44615 -6.189733,-15.20062 -11.751743,-26.12109 -5.562011,-10.92046 -10.112752,-20.68894 -10.112752,-21.70776 0,-1.01879 -3.447416,-8.05962 -7.660926,-15.64628 -4.21351,-7.58667 -8.310176,-15.05771 -9.103711,-16.60236 -3.356977,-6.53442 -4.402055,-1.11324 -4.688984,24.32356 -0.162179,14.37735 0.08673,31.22846 0.552996,37.4469 0.781418,10.42021 1.331746,11.9531 7.022283,19.55999 4.16281,5.56467 7.785922,8.77459 11.120792,9.85248 3.398141,1.09833 5.092341,2.62644 5.412691,4.88202 0.550177,3.87387 -1.099329,4.02716 -19.97852,1.85661 -7.266037,-0.83539 -13.207893,-0.87371 -14.663715,-0.0945 -1.346189,0.72044 -6.381661,1.75501 -11.18996,2.29901 -7.062279,0.799 -9.113014,0.54246 -10.67115,-1.335 z M 204.6309,506.69587 c -2.23764,-2.23762 -0.62425,-5.04751 4.90083,-8.53534 4.24899,-2.68226 6.93988,-6.01722 9.72839,-12.0569 8.50818,-18.42806 17.85874,-48.40072 17.9297,-57.47268 0.0241,-3.07838 1.54558,-4.81999 7.30885,-8.36617 l 7.27844,-4.47848 2.10769,3.2589 c 1.15923,1.79239 2.5281,5.22885 3.04196,7.63657 1.06793,5.00404 3.84204,12.24763 9.50037,24.8068 2.1695,4.81544 4.76549,11.28126 5.76885,14.36851 1.00335,3.08723 2.73334,7.35546 3.84442,9.48495 1.11107,2.12949 2.02784,4.52845 2.03726,5.33102 0.008,0.80258 0.70174,3.92446 1.53852,6.93753 1.17111,4.21705 2.84902,6.15561 7.28798,8.42019 7.29811,3.72322 7.72411,7.87703 1.0241,9.98584 -5.29285,1.66591 -30.02138,1.42611 -32.84423,-0.3185 -3.33171,-2.05912 -1.86354,-5.0823 3.29494,-6.78475 5.68612,-1.8766 5.8138,-2.37763 3.41077,-13.3865 -2.59635,-11.89456 -3.07008,-12.17841 -18.3658,-11.00474 -9.14296,0.70156 -12.90422,3.62716 -15.08757,11.73547 -2.05147,7.61857 -0.12763,11.94788 5.83954,13.14132 5.11649,1.02329 5.9719,4.46282 1.68102,6.75924 -3.08615,1.65164 -29.6546,2.10919 -31.22603,0.53772 z m 50.7593,-43.88959 c -2.71876,-15.92922 -5.3044,-20.3815 -10.81983,-18.63098 -1.65248,0.52449 -3.98226,2.84439 -5.17731,5.15538 -2.07979,4.02188 -3.02697,16.1392 -1.38956,17.77662 0.43084,0.43082 4.72955,0.87251 9.55273,0.98153 l 8.76942,0.19822 z m 65.32384,42.8685 c -2.91132,-0.83496 -4.69571,-2.28651 -4.69571,-3.81985 0,-2.44278 5.52092,-5.86003 9.4675,-5.86003 3.31849,0 4.20821,-2.92781 4.4172,-14.53598 0.24468,-13.58991 -0.87984,-17.16373 -9.35113,-29.71914 -3.69732,-5.47986 -7.61364,-11.62607 -8.70293,-13.65824 -2.45593,-4.58171 -9.62055,-11.15393 -15.89498,-14.58065 -4.92813,-2.69147 -6.27083,-6.86458 -2.65509,-8.25206 1.14804,-0.44056 10.40114,-0.40818 20.56244,0.072 20.13371,0.95131 22.64021,2.17187 16.93384,8.24603 -3.93089,4.18425 -3.89108,5.2502 0.51146,13.69358 1.98798,3.81263 4.73883,9.71802 6.11299,13.12307 2.40529,5.96002 7.7855,9.85348 8.91865,6.45405 0.29422,-0.88264 2.14607,-3.97896 4.11526,-6.88071 1.96917,-2.90174 4.36885,-8.22407 5.33256,-11.82739 1.5116,-5.65163 1.40619,-7.1545 -0.76746,-10.94184 -3.29523,-5.74163 -3.17912,-8.07595 0.49965,-10.04476 2.77716,-1.4863 16.68999,-1.0085 25.80031,0.88605 4.51069,0.93803 4.12285,4.30039 -0.7296,6.32549 -5.02297,2.09626 -16.1904,12.03878 -18.523,16.4913 -0.96435,1.84074 -2.414,4.66011 -3.22146,6.26525 -0.80746,1.60514 -2.89388,5.67515 -4.63648,9.04445 -1.74258,3.36929 -3.16835,8.17318 -3.16835,10.6753 0,2.50212 -0.7104,5.87669 -1.57866,7.49906 -0.9534,1.78146 -1.18421,5.81776 -0.58272,10.19104 0.76708,5.57735 2.13577,8.34832 5.95633,12.05878 8.89383,8.6376 6.71915,10.2398 -14.05628,10.35601 -8.45274,0.0473 -17.48169,-0.52007 -20.06434,-1.26075 z m 63.40142,1.02109 c -2.23764,-2.23762 -0.62424,-5.04751 4.90083,-8.53534 6.55737,-4.13947 10.23169,-10.94742 18.49505,-34.26855 6.16892,-17.41007 9.14139,-28.60271 9.17066,-34.53142 0.0196,-3.94776 1.06086,-5.25605 7.18148,-9.02208 6.79332,-4.17998 7.27743,-4.27361 9.48496,-1.83432 1.27945,1.41377 2.32627,3.33701 2.32627,4.27383 0,3.07737 6.04915,19.75151 11.09776,30.5903 2.72454,5.84927 4.95774,11.4308 4.96269,12.40339 0.004,0.9726 0.9618,3.595 2.12633,5.82755 1.16456,2.23257 3.22708,8.0142 4.58338,12.8481 2.16928,7.73118 3.14265,9.13406 8.08822,11.65711 6.52557,3.32909 7.56186,7.98059 2.22961,10.0079 -3.98362,1.51458 -31.64609,1.16051 -34.23279,-0.43813 -3.29557,-2.0368 -1.80195,-5.06597 3.33364,-6.76085 5.6861,-1.8766 5.81378,-2.37763 3.41075,-13.3865 -1.91485,-8.77249 -3.85918,-11.59704 -7.91315,-11.49564 -19.08847,0.47746 -22.8477,2.22712 -25.43581,11.83864 -2.03269,7.54882 0.0219,12.3864 5.74686,13.5314 5.10543,1.02108 5.95574,4.46285 1.66929,6.75689 -3.08615,1.65164 -29.6546,2.10919 -31.22603,0.53772 z m 50.8531,-44.64437 c -1.38303,-8.93797 -3.52308,-15.18966 -5.86498,-17.13327 -3.19937,-2.65525 -8.08657,-0.19593 -10.34317,5.20486 -1.973,4.72205 -2.82446,15.43209 -1.34452,16.91203 0.39109,0.39109 4.71579,0.82146 9.61043,0.95636 l 8.89935,0.24526 z m 51.27599,44.39516 c -1.64749,-0.30852 -2.31719,-1.30693 -1.79301,-2.67299 0.46023,-1.19931 0.83677,-2.42542 0.83677,-2.72469 0,-0.2993 2.46244,-0.98787 5.47209,-1.53016 9.23646,-1.6643 9.12015,-1.2722 9.12015,-30.74509 0,-32.42772 -0.64963,-34.63613 -12.3997,-42.15255 -12.53065,-8.01577 -8.63447,-13.38665 7.82371,-10.78496 6.11886,0.96727 9.16548,2.61359 16.26703,8.79032 4.80596,4.18011 8.73809,8.0761 8.73809,8.65777 0,0.95872 5.53314,6.85105 30.47464,32.45295 11.66712,11.97606 12.63207,11.25579 12.30287,-9.18326 -0.14827,-9.20657 -0.67623,-19.49827 -1.17326,-22.87046 l -0.90364,-6.13123 -8.31171,-0.43528 -8.3117,-0.43526 -0.4529,-5.4721 c -0.24909,-3.00964 0.0792,-5.50966 0.72961,-5.55558 12.92922,-0.9128 33.10882,-0.97702 36.3488,-0.11573 5.7713,1.53426 6.36821,6.38213 1.22111,9.91727 -8.92882,6.13251 -10.43991,8.43213 -10.94077,16.64985 -0.98681,16.19112 -0.44519,33.17086 1.54296,48.3703 1.12515,8.6018 1.61737,16.06797 1.09384,16.5915 -2.72947,2.72948 -9.13711,-2.04706 -20.22864,-15.07933 -13.39212,-15.73537 -42.95434,-45.60666 -45.13482,-45.60666 -1.86754,0 -1.55277,22.16595 0.55951,39.39905 l 1.69915,13.86263 5.8369,0.7296 c 4.58058,0.57257 5.93327,1.40578 6.28462,3.87108 0.43816,3.07448 0.0796,3.1367 -16.81212,2.91845 -9.49289,-0.12272 -18.44321,-0.44461 -19.88958,-0.71544 z M 95.172037,329.89326 c -1.967449,-2.17399 -2.414997,-5.94472 -2.414997,-20.34639 0,-16.61359 0.195244,-17.81461 3.24313,-19.94944 2.81539,-1.97196 11.66856,-2.27157 67.12432,-2.27157 55.81045,0 63.88117,-0.27653 63.88117,-2.18884 0,-1.90369 -6.61514,-2.18883 -50.781,-2.18883 -37.55069,0 -51.23721,-0.45621 -52.53207,-1.75107 -2.42072,-2.42072 -2.42072,-36.39464 0,-38.81536 1.29832,-1.29832 15.59523,-1.75107 55.29439,-1.75107 46.24795,0 53.65778,-0.29824 54.38328,-2.18883 0.73372,-1.9121 -4.10704,-2.18884 -38.28718,-2.18884 -36.05247,0 -39.31684,-0.20969 -41.54207,-2.66854 -3.25526,-3.59703 -3.52754,-33.19078 -0.34544,-37.54603 1.95343,-2.67359 4.4509,-2.85657 44.50633,-3.2605 35.99257,-0.36297 42.43677,-0.75076 42.43677,-2.55365 0,-1.78603 -4.3832,-2.12567 -27.4334,-2.12567 -19.39148,0 -27.94674,-0.51331 -29.1845,-1.75107 -2.42071,-2.42073 -2.42071,-36.39464 0,-38.81536 1.25235,-1.25234 10.60371,-1.75107 32.83255,-1.75107 26.65516,0 31.08147,-0.31173 31.08147,-2.18883 0,-1.8165 -2.80494,-2.18884 -16.48923,-2.18884 -10.87933,0 -17.08497,-0.59575 -18.24029,-1.75107 -1.16899,-1.16899 -1.75107,-7.62039 -1.75107,-19.40768 0,-11.78729 0.58208,-18.23869 1.75107,-19.40768 1.19275,-1.19275 8.17165,-1.75107 21.88836,-1.75107 11.07551,0 20.13729,0.23695 20.13729,0.52656 0,0.28961 -1.30634,8.99024 -2.903,19.33472 -1.59663,10.34447 -2.90993,19.30064 -2.91844,19.90257 -0.008,0.60193 2.21257,1.09442 4.9357,1.09442 5.05927,0 6.72263,-1.83476 6.72263,-7.41547 0,-2.68736 1.51072,-2.7991 37.84737,-2.7991 h 37.84737 l 0.45726,4.74248 c 0.41831,4.33847 0.92775,4.78132 5.98002,5.19839 5.10191,0.42118 5.46658,0.19878 4.78537,-2.91844 -0.86479,-3.95742 -5.20084,-34.18063 -5.20084,-36.25108 0,-2.1602 39.84804,-1.84159 42.02566,0.33602 1.16899,1.16899 1.75107,7.62039 1.75107,19.40768 0,11.78729 -0.58208,18.23869 -1.75107,19.40768 -1.15532,1.15532 -7.36098,1.75107 -18.2403,1.75107 -13.68429,0 -16.48924,0.37234 -16.48924,2.18884 0,1.8771 4.42631,2.18883 31.08147,2.18883 22.22885,0 31.58022,0.49873 32.83255,1.75107 2.42072,2.42072 2.42072,36.39463 0,38.81536 -1.23776,1.23776 -9.79302,1.75107 -29.18448,1.75107 -23.05021,0 -27.43341,0.33964 -27.43341,2.12567 0,1.80289 6.44421,2.19068 42.43677,2.55365 40.05543,0.40393 42.5529,0.58691 44.50633,3.2605 1.49361,2.04424 2.06956,7.36218 2.06956,19.10856 0,13.91474 -0.38715,16.62638 -2.66853,18.69101 -2.34314,2.12051 -7.42926,2.415 -41.70949,2.415 -30.58402,0 -38.90934,0.39511 -38.43333,1.82403 0.46833,1.40583 12.92912,1.91185 54.35015,2.20706 36.70241,0.26159 54.36127,0.89658 55.69407,2.0027 2.61346,2.16897 2.78945,36.32138 0.20054,38.91031 -1.29486,1.29486 -14.98137,1.75107 -52.53206,1.75107 -44.16585,0 -50.78099,0.28514 -50.78099,2.18883 0,1.91231 8.07071,2.18884 63.88115,2.18884 55.45575,0 64.30892,0.29961 67.1243,2.27157 3.0522,2.13784 3.24314,3.32739 3.24314,20.20299 0,15.51844 -0.3591,18.25637 -2.66854,20.34639 -2.39406,2.1666 -8.98041,2.415 -64.03198,2.415 h -61.36344 l -2.46595,-16.41627 c -1.35627,-9.02895 -2.83174,-18.87871 -3.27882,-21.88836 -0.76056,-5.11985 -1.13991,-5.47209 -5.89329,-5.47209 -4.94698,0 -5.06478,0.13407 -4.4842,5.10728 l 0.59625,5.10728 h -62.36189 -62.36188 l 0.8288,-5.10728 c 0.81688,-5.03374 0.75417,-5.10728 -4.35347,-5.10728 -5.96793,0 -5.41373,-1.50273 -9.14875,24.8068 -1.31027,9.2296 -2.68638,17.27357 -3.05803,17.8755 -0.37165,0.60193 -28.11454,1.09442 -61.65086,1.09442 -57.21852,0 -61.12393,-0.16441 -63.390133,-2.66855 z M 357.97133,285.50183 c -0.47007,-1.41092 -14.04743,-1.91036 -59.94979,-2.20521 -65.13477,-0.41837 -60.82495,0.2263 -58.42236,-8.73897 l 0.87987,-3.28325 h 58.01227 58.01227 l 0.93338,5.8369 c 0.882,5.51576 1.21338,5.83689 6.02339,5.83689 5.90768,0 5.77449,0.80162 2.90938,-17.51069 -4.00729,-25.61254 -3.13496,-23.34758 -8.99204,-23.34758 -5.15662,0 -5.19493,0.0461 -4.24544,5.10728 l 0.95814,5.10728 h -55.70756 -55.70757 l 0.84232,-5.1907 0.84235,-5.19071 -5.37975,0.44823 -5.37972,0.44823 -2.45903,16.78108 c -3.54084,24.16363 -3.62581,23.34758 2.43073,23.34758 3.56698,0 5.10727,0.66012 5.10727,2.18883 0,1.91012 7.63391,2.18884 59.94979,2.18884 47.31113,0 59.82169,-0.38455 59.3421,-1.82403 z M 241.34309,267.61472 c -0.40768,-0.40766 -0.34197,-3.19842 0.14603,-6.2017 l 0.88724,-5.46047 55.32896,-0.38261 c 43.29402,-0.29939 55.58329,0.0179 56.49817,1.45923 0.64306,1.013 1.17927,3.97594 1.19155,6.5843 l 0.0223,4.74249 h -56.66653 c -31.16661,0 -57.0001,-0.33355 -57.40776,-0.74124 z m 109.69662,-29.17286 c 0,-1.90511 -6.80972,-2.18884 -52.53207,-2.18884 -45.72235,0 -52.53207,0.28373 -52.53207,2.18884 0,1.90511 6.80972,2.18883 52.53207,2.18883 45.72235,0 52.53207,-0.28372 52.53207,-2.18883 z m -104.79179,-8.39054 0.45726,-4.74248 50.97486,-0.38403 c 54.20851,-0.40837 53.28896,-0.52191 53.33733,6.58573 0.0189,2.77522 0.8126,3.28325 5.12962,3.28325 5.99508,0 5.8705,0.82462 2.92246,-19.34431 -3.27105,-22.37875 -2.91518,-21.51395 -8.85329,-21.51395 -5.09037,0 -5.13531,0.0549 -4.18746,5.10728 l 0.95813,5.10728 h -48.47645 -48.47643 l 0.59624,-5.10728 c 0.58323,-4.99565 0.48223,-5.10728 -4.62035,-5.10728 h -5.2166 l -2.96536,20.42913 -2.96538,20.42913 h 5.46409 c 5.09797,0 5.49471,-0.31773 5.92133,-4.74247 z m 1.72636,-13.13301 c 0.48394,-1.80579 0.88886,-4.4324 0.89982,-5.8369 0.0186,-2.38143 3.35558,-2.55365 49.48027,-2.55365 h 49.46035 l 0.55663,5.8369 0.55664,5.8369 H 298.0112 247.09441 Z m 95.40501,-26.26604 c -0.4646,-1.39501 -11.13319,-1.91479 -45.35754,-2.20993 -39.16467,-0.33773 -44.75006,-0.11012 -44.75006,1.82404 0,1.92634 5.82017,2.20992 45.35754,2.20992 35.63724,0 45.22738,-0.3909 44.75006,-1.82403 z m -90.1076,-8.39054 0.72961,-5.10728 h 44.50634 44.50633 l 0.4529,5.47209 c 0.43622,5.27073 0.65439,5.47209 5.92891,5.47209 h 5.47605 l -2.87736,-20.42914 -2.87738,-20.42914 h -5.31218 c -5.21183,0 -5.30093,0.0964 -4.71595,5.10729 l 0.59624,5.10728 h -41.01791 -41.01793 v -5.10728 c 0,-4.82393 -0.27212,-5.10729 -4.90484,-5.10729 h -4.90485 l -2.43883,16.41627 c -1.34135,9.02895 -2.80744,18.26537 -3.25796,20.5254 -0.7956,3.99101 -0.65792,4.09587 4.79004,3.64806 5.18391,-0.42612 5.66449,-0.84827 6.33877,-5.56835 z m 1.47915,-11.30898 c 0.0123,-1.40451 0.41588,-4.03111 0.89981,-5.8369 l 0.87988,-3.28326 h 42.14729 c 39.1599,0 42.14874,0.18101 42.16723,2.55365 0.0123,1.40449 0.41588,4.0311 0.89982,5.83689 l 0.87987,3.28325 h -43.94692 c -40.88897,0 -43.94552,-0.17769 -43.92698,-2.55363 z m 81.69662,-27.38468 c 0,-1.93147 -4.85864,-2.16357 -38.1837,-1.82403 -28.96833,0.29514 -38.33031,0.82924 -38.79106,2.21305 -0.47568,1.42871 7.7998,1.82404 38.18373,1.82404 33.69686,0 38.79103,-0.29063 38.79103,-2.21306 z m -105.06413,186.9873 c 0,-1.10354 0.41041,-4.05847 0.91202,-6.5665 l 0.912,-4.56008 h 65.48269 65.48269 l 0.0198,3.28326 c 0.0123,1.80579 0.41588,4.76072 0.8998,6.56651 l 0.87988,3.28325 h -67.29448 c -56.12547,0 -67.29443,-0.33302 -67.29443,-2.00644 z m 3.19517,-20.97634 0.45289,-5.47209 62.93722,-0.38017 62.93725,-0.38019 0.88389,3.29863 c 2.42697,9.0572 7.33693,8.40591 -63.37021,8.40591 h -64.29393 z m 27.44853,-187.75574 c 0,-8.40914 -1.18224,-8.14509 36.46655,-8.14509 h 34.69506 l 0.87987,3.28326 c 2.37484,8.86168 4.3716,8.39053 -35.56087,8.39053 h -36.48061 z m 2.44871,-12.15795 c -0.35309,-0.60193 -0.31731,-3.22853 0.0795,-5.8369 l 0.72148,-4.74248 h 33.39654 33.39652 v 5.8369 5.8369 h -33.47603 c -18.41182,0 -33.76492,-0.49249 -34.118,-1.09442 z M 246.0269,77.293537 c -0.86757,-1.621093 -1.51055,-13.15284 -1.51055,-27.091582 0,-13.938737 0.64298,-25.470487 1.51055,-27.091576 1.40908,-2.63286 3.3069,-2.822517 28.24379,-2.822517 h 26.73321 l 1.35691,-4.742479 1.3569,-4.742477 14.3255,-0.419451 c 15.47849,-0.4532085 18.40425,0.569779 18.40425,6.435021 0,3.134999 0.62795,3.469386 6.51518,3.469386 4.94789,0 6.87853,0.678974 8.02573,2.822517 0.86758,1.621089 1.51057,13.152839 1.51057,27.091576 0,13.938742 -0.64299,25.470489 -1.51057,27.091582 -1.4492,2.707836 -3.58147,2.822518 -52.48073,2.822518 -48.89925,0 -51.03154,-0.114641 -52.48074,-2.822518 z"
     id="path4749"
     inkscape:connector-curvature="0" />
</svg>
